<svg id="esrvatPKgeE1" xmlns="http://www.w3.org/2000/svg" xmlns:xlink="http://www.w3.org/1999/xlink" viewBox="0 0 300 300" shape-rendering="geometricPrecision" text-rendering="geometricPrecision"><path d="M88.78815,225.975932L106.899414,150l19.064491,38.800181l69.585383-30.503185l20.97094-66.725709" fill="none" stroke="#000" stroke-width="0.6"/><path d="M195.549288,158.296996L132.636474,84.898714L106.899414,150l88.649874,8.296996Z" fill="none" stroke="#000" stroke-width="0.6"/><path d="M59.238192,63.927776L106.899414,150l25.73706-65.101286L59.238192,63.927776Z" fill="none" stroke="#000" stroke-width="0.6"/><path d="M125.963903,188.800179L106.899414,150l19.064489,38.800179Z" transform="translate(.000002 0.000002)" fill="none" stroke="#000" stroke-width="0.6"/><path d="M88.78815,225.975932l37.175755-37.175751" transform="translate(0 0.000001)" fill="none" stroke="#000" stroke-width="0.6"/><path d="M53.518845,108.729325l26.690285-4.766121-26.690285,4.766121Z" transform="translate(0 0.000002)" fill="none" stroke="#000" stroke-width="0.6"/><path d="M106.899414,150L53.518845,108.729327" fill="none" stroke="#000" stroke-width="0.6"/><path d="" transform="translate(.000005 0)" fill="none" stroke="#000" stroke-width="0.6"/><path d="M216.520228,91.571287l-53.483909,30.026568" transform="translate(.000001 0)" fill="none" stroke="#000" stroke-width="0.6"/><path d="M216.520229,91.571287l25.518615,12.391919" transform="translate(.000001 0.000001)" fill="none" stroke="#000" stroke-width="0.6"/><path d="M242.038845,103.963206l-31.461183,4.766121" transform="translate(.000001 0.000001)" fill="none" stroke="#000" stroke-width="0.6"/><line x1="-36.699141" y1="-11.237902" x2="36.699141" y2="11.237903" transform="translate(95.937333 73.382008)" fill="none" stroke="#000" stroke-width="3"/><line x1="23.94924" y1="43.927947" x2="-23.949241" y2="-43.927947" transform="translate(82.950174 106.072053)" fill="none" stroke="#000" stroke-width="3"/><line x1="12.86853" y1="-32.550643" x2="-12.86853" y2="32.550643" transform="translate(119.767944 117.449357)" fill="none" stroke="#000" stroke-width="3"/><line x1="-31.456407" y1="-36.937448" x2="31.456407" y2="36.937448" transform="translate(164.092881 121.836162)" fill="none" stroke="#000" stroke-width="3"/><line x1="-26.741954" y1="15.013284" x2="26.741954" y2="-15.013283" transform="translate(189.778274 106.584572)" fill="none" stroke="#000" stroke-width="3"/><line x1="10.48547" y1="-33.362854" x2="-10.48547" y2="33.362854" transform="translate(206.034758 124.934143)" fill="none" stroke="#000" stroke-width="3"/><line x1="-12.759309" y1="-6.581225" x2="12.759309" y2="6.581226" transform="translate(229.279537 97.381982)" fill="none" stroke="#000" stroke-width="3"/><line x1="15.730591" y1="-2.38306" x2="-15.730591" y2="2.38306" transform="translate(226.308254 106.346268)" fill="none" stroke="#000" stroke-width="3"/><line x1="44.324937" y1="4.148497" x2="-44.324937" y2="-4.148497" transform="translate(151.224351 154.148499)" fill="none" stroke="#000" stroke-width="3"/><line x1="-9.532246" y1="-19.40009" x2="9.532246" y2="19.40009" transform="translate(116.43166 169.400092)" fill="none" stroke="#000" stroke-width="3"/><line x1="-34.792691" y1="15.251593" x2="34.792691" y2="-15.251592" transform="translate(160.756597 173.548589)" fill="none" stroke="#000" stroke-width="3"/><line x1="9.055632" y1="-37.987965" x2="-9.055632" y2="37.987966" transform="translate(97.843782 187.987968)" fill="none" stroke="#000" stroke-width="3"/><line x1="-18.587878" y1="18.587876" x2="18.587878" y2="-18.587876" transform="translate(107.376028 207.388058)" fill="none" stroke="#000" stroke-width="3"/><line x1="26.690285" y1="20.635337" x2="-26.690284" y2="-20.635338" transform="translate(80.209129 129.364666)" fill="none" stroke="#000" stroke-width="3"/><line x1="-13.345143" y1="2.383061" x2="13.345142" y2="-2.383061" transform="translate(66.863988 106.346267)" fill="none" stroke="#000" stroke-width="3"/></svg>
